# xmcd CD database file generated by OrangeCD 6.3
#
# Track frame offsets:
#	150
#	14368
#	28168
#	44515
#	58241
#	66716
#	80966
#	91466
#	102791
#	115766
#	140741
#	148691
#
# Disc length: 2161 seconds
#
# Revision: 0
# Processed by: cddbd v1.5.2PL0 Copyright (c) Steve Scherf et al.
# Submitted via: OrangeCD 6.3
#
DISCID=ba086f0c
DTITLE=Jérôme Malaval - Hot and Cool
DYEAR=2007
DGENRE=
TTITLE0=Mike's Breakdown
TTITLE1=Will The Circle Be Unbroken
TTITLE2=Hellacious
TTITLE3=The Early Dawn
TTITLE4=Bluegrass (with Guts)
TTITLE5=The Londonderry Air
TTITLE6=Get On With It
TTITLE7=Waltz For The Lonely
TTITLE8=Say It With Soul
TTITLE9=Sandstorm
TTITLE10=Foggy Mountain Breakdown
TTITLE11=Fabulous !
EXTD=
EXTT0=
EXTT1=
EXTT2=
EXTT3=
EXTT4=
EXTT5=
EXTT6=
EXTT7=
EXTT8=
EXTT9=
EXTT10=
EXTT11=
PLAYORDER=
